<svg width="730" height="730" xmlns="http://www.w3.org/2000/svg" preserveAspectRatio="xMidYMid meet">

 <g>
  <title>background</title>
  <rect fill="none" id="canvas_background" height="732" width="732" y="-1" x="-1"/>
 </g>
 <g>
  <title>Layer 1</title>
  <g id="svg_1" fill="#666666" transform="translate(0,799) scale(0.10000000149011612,-0.10000000149011612) ">
   <path id="svg_2" d="m2858.000057,7637.999767l-3,-352l-105,-31c-181,-54 -309,-106 -494,-198l-178,-89l-249,248l-249,249l-535,-535l-535,-535l248,-250l248,-250l-91,-180c-91,-180 -164,-362 -206,-514l-22,-81l-354,0l-353,0l0,-760l0,-760l355,0c310,0 355,-2 355,-15c0,-26 95,-304 140,-410c23,-55 72,-157 108,-228l67,-127l-248,-248l-247,-247l535,-535l535,-535l248,248l249,249l114,-61c194,-102 370,-171 657,-257c9,-3 12,-82 12,-354l0,-350l755,0l755,0l2,352l3,351l105,33c184,56 300,103 488,196l184,91l246,-246l247,-247l535,535l535,535l-248,248l-248,248l52,94c93,171 185,395 244,592l26,88l352,2l352,3l0,755l0,755l-350,3l-350,3l-58,177c-60,184 -141,373 -221,514l-47,82l248,248l248,248l-535,535l-535,535l-247,-247l-246,-246l-159,80c-169,86 -393,176 -535,214l-88,24l0,353l0,352l-755,0l-755,0l-2,-352zm910,-1759c606,-65 1107,-468 1296,-1040c45,-137 81,-423 73,-579c-17,-324 -150,-646 -374,-905c-350,-405 -907,-597 -1434,-495c-314,60 -563,194 -795,425c-177,176 -294,364 -369,589c-153,460 -87,935 186,1346c81,123 281,324 401,403c305,203 667,294 1016,256z"/>
  </g>
 </g>
</svg>