<svg width="410" height="410" xmlns="http://www.w3.org/2000/svg" preserveAspectRatio="xMidYMid meet">

 <g>
  <title>background</title>
  <rect fill="none" id="canvas_background" height="412" width="412" y="-1" x="-1"/>
 </g>
 <g>
  <title>Layer 1</title>
  <g id="svg_1" fill="#666666" transform="translate(0,799) scale(0.10000000149011612,-0.10000000149011612) ">
   <path id="svg_2" d="m1305,7829c-208,-82 -381,-152 -384,-154c-2,-3 28,-87 67,-187c40,-99 71,-182 70,-183c-40,-24 -179,-149 -250,-224l-93,-100l-170,74c-93,41 -175,75 -181,75c-9,0 -350,-768 -342,-774c1,-2 82,-37 178,-79l175,-76l-5,-58c-3,-32 -5,-139 -5,-239l0,-181l-177,-69c-98,-38 -178,-73 -178,-79c0,-8 298,-774 305,-782c1,-2 80,29 175,67c96,39 179,70 186,70c6,0 31,-26 56,-57c57,-72 146,-164 221,-230l58,-50l-77,-177c-44,-101 -73,-180 -68,-185c5,-4 72,-35 149,-68c77,-34 245,-106 373,-162c128,-56 236,-101 241,-101c4,0 41,78 83,172l75,173l240,0l240,0l68,-175c37,-96 71,-178 74,-182c3,-3 49,11 101,31c52,21 229,91 393,155c187,74 297,122 294,129c-51,124 -139,358 -136,360c76,52 238,205 311,294l26,32l178,-79c99,-43 182,-75 185,-72c7,8 326,740 331,760c2,9 -58,40 -175,90l-179,77l8,50c4,28 8,135 8,240l1,189l170,68c94,36 174,68 179,70c11,5 -296,788 -309,788c-5,0 -83,-29 -173,-65c-89,-35 -168,-65 -175,-67c-8,-2 -48,38 -89,88c-42,50 -114,124 -160,164c-45,41 -84,77 -86,81c-2,5 31,88 73,184c42,97 75,178 73,180c-2,1 -176,77 -387,169c-292,127 -386,164 -392,154c-5,-7 -41,-89 -81,-181l-73,-168l-30,7c-16,4 -124,8 -238,9l-209,2l-70,176c-38,98 -75,177 -81,176c-7,0 -183,-67 -392,-150zm916,-1055c174,-33 312,-107 444,-239c101,-102 161,-197 206,-328c59,-172 61,-330 7,-510c-50,-167 -110,-268 -224,-378c-84,-80 -143,-121 -237,-164c-243,-112 -513,-105 -758,21c-278,144 -459,440 -459,753c0,227 82,429 238,593c206,216 491,307 783,252z"/>
  </g>
  <rect id="svg_4" height="0" width="408" y="17" x="42" opacity="0.5" stroke-width="0" stroke="#000" fill="#fff"/>
 </g>
</svg>
