<svg width="230" height="230" xmlns="http://www.w3.org/2000/svg" preserveAspectRatio="xMidYMid meet">

 <g>
  <title>background</title>
  <rect fill="none" id="canvas_background" height="50" width="50" y="-1" x="-1"/>
 </g>
 <g>
  <title>Layer 1</title>
  <g id="svg_1" fill="#666666" transform="translate(0,799) scale(0.10000000149011612,-0.10000000149011612) ">
   <path id="svg_2" d="m918,7863l-3,-107l-77,-27c-43,-15 -97,-38 -122,-52l-44,-24l-78,78l-79,79l-162,-162c-90,-90 -163,-167 -163,-173c0,-6 33,-44 74,-84l75,-74l-24,-41c-13,-23 -35,-76 -50,-118l-28,-78l-108,0l-109,0l0,-240l0,-240l108,0l109,0l12,-42c7,-24 29,-78 49,-121l35,-78l-71,-72c-40,-40 -72,-77 -72,-82c0,-5 73,-83 162,-172l163,-163l77,77l77,77l79,-37c43,-21 98,-43 123,-50l44,-13l3,-112l3,-112l234,0l234,0l3,111l3,111l75,28c41,15 95,37 119,49l44,23l78,-78l79,-79l167,168l168,167l-79,79l-78,78l28,54c15,30 38,83 50,119l23,65l111,3l110,3l0,239l0,239l-110,3l-111,3l-23,65c-12,36 -35,89 -50,119l-28,54l76,76l76,76l-165,165l-165,165l-73,-73c-40,-39 -76,-72 -81,-72c-5,0 -36,13 -70,29c-34,16 -87,37 -118,47l-58,18l0,108l0,108l-235,0l-234,0l-3,-107zm389,-574c81,-28 131,-60 190,-121c253,-269 127,-699 -232,-793c-214,-55 -444,55 -542,261c-34,71 -38,89 -41,177c-3,60 1,116 8,145c72,267 357,421 617,331z"/>
  </g>
 </g>
</svg>
